<svg viewBox="0 0 200 200" xmlns="http://www.w3.org/2000/svg">
  <defs><clipPath id="c"><rect width="200" height="200" rx="46"/></clipPath></defs>
  <g clip-path="url(#c)">
    <rect width="200" height="200" fill="#18181B"/>
    <ellipse cx="83" cy="104" rx="68" ry="58" fill="#FBBF24" opacity="0.07"/>
    <g transform="rotate(10, 100, 105)">
      <rect x="44" y="22" width="110" height="144" rx="15" fill="#27272A"/>
      <rect x="44" y="22" width="110" height="22" rx="15" fill="#3F3F46"/>
    </g>
    <g transform="rotate(4.5, 100, 105)">
      <rect x="36" y="14" width="110" height="144" rx="15" fill="#FBBF24" opacity="0.32"/>
    </g>
    <rect x="26" y="6" width="112" height="146" rx="15" fill="#FBBF24"/>
    <rect x="26" y="6" width="112" height="24" rx="15" fill="white" opacity="0.08"/>
    <rect x="39" y="34" width="66" height="11" rx="5" fill="#78350F" opacity="0.55"/>
    <rect x="39" y="53" width="52" height="7" rx="3" fill="#78350F" opacity="0.28"/>
    <rect x="39" y="66" width="62" height="7" rx="3" fill="#78350F" opacity="0.28"/>
    <rect x="39" y="79" width="44" height="7" rx="3" fill="#78350F" opacity="0.28"/>
    <line x1="30" y1="100" x2="132" y2="100" stroke="#78350F" stroke-width="2.5" stroke-dasharray="6,4" opacity="0.40"/>
    <polyline points="37,121 59,142 112,104" stroke="#78350F" stroke-width="12" stroke-linecap="round" stroke-linejoin="round" fill="none" opacity="0.65"/>
  </g>
</svg>
